<svg xmlns="http://www.w3.org/2000/svg" xmlns:xlink="http://www.w3.org/1999/xlink" width="1366" zoomAndPan="magnify" viewBox="0 0 1024.5 576" height="768" preserveAspectRatio="xMidYMid meet" version="1.0"><defs><g/><clipPath id="315b7b15ce"><path d="M 0 45 L 1024 45 L 1024 575.859375 L 0 575.859375 Z M 0 45 " clip-rule="nonzero"/></clipPath></defs><g clip-path="url(#315b7b15ce)"><path stroke-linecap="butt" transform="matrix(0.749634, 0, 0, 0.749634, 0, 135.95601)" fill="none" stroke-linejoin="miter" d="M 528.216022 85.292972 C 524.808109 85.292972 521.530468 86.522739 518.664487 88.158954 C 493.558489 105.490325 441.027654 198.817105 401.325994 284.911189 C 371.7178 287.641687 335.971194 290.507669 299.677447 293.780099 C 332.010929 231.833211 362.713407 173.028482 362.713407 152.971822 C 362.713407 135.640451 340.47339 88.158954 280.574377 88.158954 C 211.259312 88.158954 131.439122 152.42468 131.439122 206.591731 C 131.439122 225.012175 143.721156 254.755852 167.190939 254.755852 C 167.190939 202.089534 267.203271 118.31429 306.904931 118.31429 C 316.320983 118.31429 320.823179 122.816486 320.823179 128.954897 C 320.823179 145.739127 276.207664 223.923102 236.500793 297.735153 C 210.170239 299.376579 185.611383 300.465652 166.096655 300.465652 C 164.324957 301.695418 163.777815 304.967848 163.777815 308.922903 C 163.777815 321.204936 171.693135 341.808737 197.888206 341.808737 C 201.84326 341.808737 207.43974 341.261596 214.125294 340.714454 C 193.386009 381.510397 178.378688 416.715072 178.378688 432.95216 C 178.378688 449.73639 205.668043 468.698765 220.810847 468.698765 C 225.313043 468.698765 228.590684 467.06255 230.362381 463.649427 C 229.132615 438.543429 252.602398 387.106878 279.480093 332.939827 C 313.048553 328.979562 350.978515 323.388293 386.177979 319.021579 C 366.668461 365.955934 352.750213 407.29902 352.750213 427.35568 C 352.750213 452.461677 373.354014 473.200962 396.823797 473.200962 C 421.382653 473.200962 447.718418 449.189248 447.718418 433.499302 C 447.718418 431.315945 447.171276 428.449963 445.535061 426.813749 C 437.619741 432.95216 424.248635 438.001498 418.110224 438.001498 C 412.513743 438.001498 409.647762 434.041233 409.647762 427.35568 C 409.647762 411.118592 426.431992 364.731379 449.896564 311.653401 C 463.408364 310.564328 474.596113 310.017186 482.917881 310.017186 C 486.331005 311.106259 487.96722 307.83383 487.96722 302.784491 C 487.96722 293.780099 481.828809 279.314708 468.999633 279.314708 L 465.044579 279.314708 C 494.652773 217.237549 531.493662 151.877539 560.554715 116.678075 C 562.326412 115.583791 562.873554 113.812093 562.873554 111.628737 C 562.873554 102.077202 543.228554 85.292972 528.216022 85.292972 Z M 548.32479 458.058158 C 584.071396 458.058158 625.956412 355.315327 650.520479 324.618059 L 655.022676 325.707132 C 648.879053 341.808737 641.651569 363.095164 641.651569 387.65402 C 641.651569 422.853483 664.027068 438.001498 677.945317 438.001498 C 701.409889 438.001498 746.166098 395.564129 800.88029 304.420706 C 800.88029 296.64608 790.917096 289.960527 785.325827 289.960527 C 738.933403 358.045825 714.239064 383.834448 696.907692 383.834448 C 691.316423 383.834448 689.133066 379.874183 689.133066 372.641487 C 689.133066 350.265988 711.508565 303.878775 717.646977 302.784491 C 718.74126 301.695418 719.283191 299.91851 719.283191 297.735153 C 719.283191 286.000262 698.137459 269.768385 677.945317 269.768385 C 650.520479 269.768385 575.202486 406.757089 557.1937 406.757089 C 553.916059 406.757089 551.050078 404.433039 551.050078 395.564129 C 551.050078 352.996487 612.585306 227.331015 672.895978 227.331015 C 690.222139 227.331015 702.504173 234.016568 701.957031 259.122566 C 716.557904 256.939209 722.696315 247.387675 722.696315 236.199925 C 722.696315 215.596123 686.949709 188.718428 656.794373 188.718428 C 589.120734 188.718428 494.699671 318.338955 494.699671 394.475056 C 494.699671 426.813749 520.899953 458.058158 548.32479 458.058158 Z M 985.965375 289.960527 C 964.684159 322.294009 897.552451 411.118592 868.491399 411.118592 C 863.577543 411.118592 861.258704 408.393304 861.258704 403.891107 C 861.258704 379.874183 919.380808 300.465652 919.380808 267.037886 C 919.380808 234.016568 863.577543 230.608656 863.577543 217.77948 C 863.577543 212.188211 873.535526 200.453319 887.589257 187.629355 C 893.185738 178.619751 865.213758 158.563092 852.936936 158.563092 C 836.699848 158.563092 815.960564 185.987929 815.960564 206.591731 C 815.960564 213.277284 818.279403 218.326622 821.551833 222.828819 C 813.230065 242.885478 799.858958 267.037886 785.258085 289.960527 C 785.258085 297.193222 794.262478 304.420706 800.948031 304.420706 C 817.185119 278.225635 830.556226 255.850136 841.749186 236.747067 C 853.478867 242.885478 864.666616 249.164583 864.666616 260.21685 C 864.666616 287.641687 802.589457 350.265988 802.589457 399.930842 C 802.589457 431.315945 826.601171 455.874801 851.160027 455.874801 C 889.230683 455.874801 941.214376 395.564129 1001.519838 304.420706 C 1001.519838 296.64608 991.561855 289.960527 985.965375 289.960527 Z M 1186.599712 289.960527 C 1165.313286 322.294009 1098.186788 411.118592 1069.125736 411.118592 C 1064.21188 411.118592 1061.893041 408.393304 1061.893041 403.891107 C 1061.893041 379.874183 1120.015145 300.465652 1120.015145 267.037886 C 1120.015145 234.016568 1064.21188 230.608656 1064.21188 217.77948 C 1064.21188 212.188211 1074.169863 200.453319 1088.223594 187.629355 C 1093.820075 178.619751 1065.848095 158.563092 1053.571273 158.563092 C 1037.334185 158.563092 1016.594901 185.987929 1016.594901 206.591731 C 1016.594901 213.277284 1018.91374 218.326622 1022.18617 222.828819 C 1013.864402 242.885478 1000.493296 267.037886 985.892423 289.960527 C 985.892423 297.193222 994.896815 304.420706 1001.582368 304.420706 C 1017.819456 278.225635 1031.190563 255.850136 1042.378312 236.747067 C 1054.113204 242.885478 1065.300953 249.164583 1065.300953 260.21685 C 1065.300953 287.641687 1003.223794 350.265988 1003.223794 399.930842 C 1003.223794 431.315945 1027.235508 455.874801 1051.794364 455.874801 C 1089.86502 455.874801 1141.848714 395.564129 1202.154175 304.420706 C 1202.154175 296.64608 1192.196192 289.960527 1186.599712 289.960527 Z M 1288.316 187.082213 C 1295.543485 171.392267 1320.649483 128.412966 1344.666408 113.812093 C 1346.438105 113.264952 1347.532389 112.175879 1347.532389 110.539664 C 1347.532389 102.624344 1328.42932 84.751041 1307.825518 84.751041 C 1283.808593 84.751041 1261.980236 126.094127 1261.980236 149.558699 C 1261.980236 175.894463 1279.853539 188.171286 1288.316 187.082213 Z M 1197.167367 451.372605 C 1241.240952 451.372605 1305.642161 342.491362 1330.201017 304.420706 C 1330.201017 296.64608 1320.107552 289.960527 1314.511071 289.960527 C 1266.482432 361.453738 1233.466326 404.98018 1212.862524 404.98018 C 1206.036277 404.98018 1203.310989 398.841769 1203.310989 390.520001 C 1203.310989 352.449345 1251.881559 255.302994 1272.620844 244.115245 C 1274.8042 242.338336 1275.351342 240.702121 1275.351342 238.518765 C 1275.351342 226.783873 1256.930898 211.641069 1236.874238 211.641069 C 1215.587812 211.641069 1146.277958 339.078239 1146.277958 393.245289 C 1146.277958 428.449963 1176.428083 451.372605 1197.167367 451.372605 Z M 1197.167367 451.372605 " stroke="#003736" stroke-width="36.326614" stroke-opacity="1" stroke-miterlimit="4"/></g><g fill="#116e6c" fill-opacity="1"><g transform="translate(82.576883, 464.295752)"><g><path d="M 313.375 -264.359375 C 310.859375 -264.359375 308.34375 -263.515625 306.25 -262.265625 C 287.40625 -249.28125 248.015625 -179.3125 218.28125 -114.796875 C 196.0625 -112.703125 169.25 -110.609375 142.03125 -108.09375 C 166.328125 -154.59375 189.359375 -198.578125 189.359375 -213.671875 C 189.359375 -226.65625 172.609375 -262.265625 127.78125 -262.265625 C 75.828125 -262.265625 15.921875 -214.078125 15.921875 -173.453125 C 15.921875 -159.625 25.140625 -137.421875 42.734375 -137.421875 C 42.734375 -176.796875 117.71875 -239.640625 147.46875 -239.640625 C 154.59375 -239.640625 157.953125 -236.296875 157.953125 -231.6875 C 157.953125 -219.109375 124.421875 -160.453125 94.6875 -105.15625 C 75 -103.90625 56.5625 -103.0625 41.890625 -103.0625 C 40.640625 -102.21875 40.21875 -99.703125 40.21875 -96.78125 C 40.21875 -87.5625 46.078125 -72.0625 65.78125 -72.0625 C 68.703125 -72.0625 72.890625 -72.484375 77.921875 -72.890625 C 62.421875 -42.3125 51.109375 -15.921875 51.109375 -3.765625 C 51.109375 8.796875 71.640625 23.046875 82.953125 23.046875 C 86.296875 23.046875 88.8125 21.78125 90.078125 19.265625 C 89.234375 0.421875 106.828125 -38.125 126.9375 -78.765625 C 152.078125 -81.703125 180.5625 -85.890625 206.96875 -89.234375 C 192.296875 -54.046875 181.828125 -23.046875 181.828125 -7.953125 C 181.828125 10.890625 197.328125 26.390625 214.921875 26.390625 C 233.359375 26.390625 253.046875 8.375 253.046875 -3.359375 C 253.046875 -5.03125 252.625 -7.125 251.375 -8.375 C 245.5 -3.765625 235.453125 0 230.84375 0 C 226.65625 0 224.5625 -2.9375 224.5625 -7.953125 C 224.5625 -20.109375 237.125 -54.890625 254.71875 -94.6875 C 264.78125 -95.515625 273.15625 -95.9375 279.4375 -95.9375 C 281.953125 -95.109375 283.21875 -97.609375 283.21875 -101.390625 C 283.21875 -108.09375 278.609375 -118.984375 268.96875 -118.984375 L 266.03125 -118.984375 C 288.234375 -165.484375 315.890625 -214.5 337.671875 -240.890625 C 338.9375 -241.734375 339.359375 -243 339.359375 -244.671875 C 339.359375 -251.796875 324.6875 -264.359375 313.375 -264.359375 Z M 313.375 -264.359375 "/></g></g></g><g fill="#116e6c" fill-opacity="1"><g transform="translate(359.08211, 464.295752)"><g><path d="M 51.953125 15.078125 C 78.765625 15.078125 110.1875 -62 128.625 -85.046875 L 131.96875 -84.203125 C 127.359375 -72.0625 121.921875 -56.140625 121.921875 -37.703125 C 121.921875 -11.3125 138.671875 0 149.140625 0 C 166.75 0 200.265625 -31.84375 241.3125 -100.125 C 241.3125 -106 233.78125 -111.015625 229.59375 -111.015625 C 194.8125 -59.90625 176.375 -40.640625 163.390625 -40.640625 C 159.203125 -40.640625 157.53125 -43.578125 157.53125 -49.015625 C 157.53125 -65.78125 174.28125 -100.546875 178.890625 -101.390625 C 179.734375 -102.21875 180.15625 -103.484375 180.15625 -105.15625 C 180.15625 -113.953125 164.234375 -126.109375 149.140625 -126.109375 C 128.625 -126.109375 72.0625 -23.46875 58.65625 -23.46875 C 56.140625 -23.46875 54.046875 -25.140625 54.046875 -31.84375 C 54.046875 -63.6875 100.125 -157.953125 145.375 -157.953125 C 158.359375 -157.953125 167.578125 -152.921875 167.15625 -134.0625 C 178.0625 -135.734375 182.65625 -142.859375 182.65625 -151.234375 C 182.65625 -166.75 155.84375 -186.859375 133.234375 -186.859375 C 82.53125 -186.859375 11.734375 -89.65625 11.734375 -32.671875 C 11.734375 -8.375 31.421875 15.078125 51.953125 15.078125 Z M 51.953125 15.078125 "/></g></g></g><g fill="#116e6c" fill-opacity="1"><g transform="translate(544.675805, 464.295752)"><g><path d="M 194.390625 -111.015625 C 178.46875 -86.71875 128.203125 -20.109375 106.421875 -20.109375 C 102.640625 -20.109375 100.96875 -22.203125 100.96875 -25.5625 C 100.96875 -43.578125 144.53125 -103.0625 144.53125 -128.203125 C 144.53125 -152.921875 102.640625 -155.4375 102.640625 -165.0625 C 102.640625 -169.25 110.1875 -178.0625 120.65625 -187.6875 C 124.84375 -194.390625 103.90625 -209.484375 94.6875 -209.484375 C 82.53125 -209.484375 67.03125 -188.953125 67.03125 -173.453125 C 67.03125 -168.421875 68.703125 -164.65625 71.21875 -161.296875 C 64.9375 -146.21875 54.890625 -128.203125 43.984375 -111.015625 C 43.984375 -105.578125 50.6875 -100.125 55.71875 -100.125 C 67.875 -119.828125 77.921875 -136.578125 86.296875 -150.828125 C 95.109375 -146.21875 103.484375 -141.609375 103.484375 -133.234375 C 103.484375 -112.703125 56.984375 -65.78125 56.984375 -28.484375 C 56.984375 -5.03125 75 13.40625 93.421875 13.40625 C 121.921875 13.40625 160.875 -31.84375 206.125 -100.125 C 206.125 -106 198.578125 -111.015625 194.390625 -111.015625 Z M 194.390625 -111.015625 "/></g></g></g><g fill="#116e6c" fill-opacity="1"><g transform="translate(695.077918, 464.295752)"><g><path d="M 194.390625 -111.015625 C 178.46875 -86.71875 128.203125 -20.109375 106.421875 -20.109375 C 102.640625 -20.109375 100.96875 -22.203125 100.96875 -25.5625 C 100.96875 -43.578125 144.53125 -103.0625 144.53125 -128.203125 C 144.53125 -152.921875 102.640625 -155.4375 102.640625 -165.0625 C 102.640625 -169.25 110.1875 -178.0625 120.65625 -187.6875 C 124.84375 -194.390625 103.90625 -209.484375 94.6875 -209.484375 C 82.53125 -209.484375 67.03125 -188.953125 67.03125 -173.453125 C 67.03125 -168.421875 68.703125 -164.65625 71.21875 -161.296875 C 64.9375 -146.21875 54.890625 -128.203125 43.984375 -111.015625 C 43.984375 -105.578125 50.6875 -100.125 55.71875 -100.125 C 67.875 -119.828125 77.921875 -136.578125 86.296875 -150.828125 C 95.109375 -146.21875 103.484375 -141.609375 103.484375 -133.234375 C 103.484375 -112.703125 56.984375 -65.78125 56.984375 -28.484375 C 56.984375 -5.03125 75 13.40625 93.421875 13.40625 C 121.921875 13.40625 160.875 -31.84375 206.125 -100.125 C 206.125 -106 198.578125 -111.015625 194.390625 -111.015625 Z M 194.390625 -111.015625 "/></g></g></g><g fill="#116e6c" fill-opacity="1"><g transform="translate(845.480032, 464.295752)"><g><path d="M 120.234375 -188.109375 C 125.6875 -199.84375 144.53125 -232.09375 162.546875 -243 C 163.8125 -243.40625 164.65625 -244.25 164.65625 -245.5 C 164.65625 -251.375 150.40625 -264.78125 134.90625 -264.78125 C 116.890625 -264.78125 100.546875 -233.78125 100.546875 -216.1875 C 100.546875 -196.484375 113.953125 -187.265625 120.234375 -188.109375 Z M 51.953125 10.0625 C 85.046875 10.0625 133.234375 -71.640625 151.65625 -100.125 C 151.65625 -106 144.125 -111.015625 139.9375 -111.015625 C 103.90625 -57.390625 79.1875 -24.71875 63.6875 -24.71875 C 58.65625 -24.71875 56.5625 -29.328125 56.5625 -35.609375 C 56.5625 -64.09375 93 -137 108.515625 -145.375 C 110.1875 -146.640625 110.609375 -147.890625 110.609375 -149.5625 C 110.609375 -158.359375 96.78125 -169.671875 81.703125 -169.671875 C 65.78125 -169.671875 13.828125 -74.15625 13.828125 -33.515625 C 13.828125 -7.125 36.453125 10.0625 51.953125 10.0625 Z M 51.953125 10.0625 "/></g></g></g></svg>